  0
SECTION
  2
HEADER
  0
ENDSEC
  0
SECTION
  2
BLOCKS
  0
BLOCK
  8
0
  2
34 FRONT DXF_34
 70
64
 10
0.0000
 20
0.0000
  0
TEXT
  8
1
 10
20.9906
 20
-0.1347
 40
0.250
 50
0.0000
  1
Piece Name: 34 FRONT DXF
  7
STANDARD
  0
TEXT
  8
1
 10
20.9906
 20
0.0053
 40
0.250
 50
0.0000
  1
Quantity: 1,0
  7
STANDARD
  0
TEXT
  8
1
 10
20.9906
 20
0.1453
 40
0.250
 50
0.0000
  1
ANNOTATION
  7
STANDARD
  0
TEXT
  8
1
 10
20.9906
 20
0.2853
 40
0.250
 50
0.0000
  1
CATEGORY: FRONTP
  7
STANDARD
  0
TEXT
  8
1
 10
20.9906
 20
0.4253
 40
0.250
 50
0.0000
  1
SIZE: 34
  7
STANDARD
  0
POLYLINE
  8
1
 66
1
 70
0
  0
VERTEX
  8
1
 10
-2.1509
 20
-4.0138
  0
VERTEX
  8
1
 10
-2.1535
 20
3.8734
  0
SEQEND
  8
1
  0
POLYLINE
  8
84
 66
1
 70
0
  0
VERTEX
  8
84
 10
-2.1509
 20
-4.0138
  0
VERTEX
  8
84
 10
-2.1535
 20
3.8734
  0
SEQEND
  8
84
  0
POINT
  8
2
 10
-2.1509
 20
-4.0138
  0
POINT
  8
2
 10
-2.1535
 20
3.8734
  0
POLYLINE
  8
1
 66
1
 70
0
  0
VERTEX
  8
1
 10
-2.1535
 20
3.8734
  0
VERTEX
  8
1
 10
5.8465
 20
3.9275
  0
VERTEX
  8
1
 10
8.8957
 20
4.0436
  0
VERTEX
  8
1
 10
11.9137
 20
4.1737
  0
VERTEX
  8
1
 10
15.2429
 20
4.3287
  0
VERTEX
  8
1
 10
17.9083
 20
4.4569
  0
VERTEX
  8
1
 10
19.6569
 20
4.5277
  0
VERTEX
  8
1
 10
21.4053
 20
4.5944
  0
VERTEX
  8
1
 10
21.4053
 20
4.5944
  0
VERTEX
  8
1
 10
23.6698
 20
4.6916
  0
VERTEX
  8
1
 10
26.2258
 20
4.8477
  0
VERTEX
  8
1
 10
28.0569
 20
4.9748
  0
VERTEX
  8
1
 10
29.9734
 20
5.1260
  0
VERTEX
  8
1
 10
31.8151
 20
5.3148
  0
VERTEX
  8
1
 10
33.7555
 20
5.6825
  0
VERTEX
  8
1
 10
35.6516
 20
6.0939
  0
SEQEND
  8
1
  0
POLYLINE
  8
84
 66
1
 70
0
  0
VERTEX
  8
84
 10
-2.1535
 20
3.8734
  0
VERTEX
  8
84
 10
5.8465
 20
3.9275
  0
VERTEX
  8
84
 10
8.8957
 20
4.0436
  0
VERTEX
  8
84
 10
11.9137
 20
4.1737
  0
VERTEX
  8
84
 10
15.2429
 20
4.3287
  0
VERTEX
  8
84
 10
17.9083
 20
4.4569
  0
VERTEX
  8
84
 10
19.6569
 20
4.5277
  0
VERTEX
  8
84
 10
21.4053
 20
4.5944
  0
VERTEX
  8
84
 10
21.4053
 20
4.5944
  0
VERTEX
  8
84
 10
23.6698
 20
4.6916
  0
VERTEX
  8
84
 10
26.2258
 20
4.8477
  0
VERTEX
  8
84
 10
28.0569
 20
4.9748
  0
VERTEX
  8
84
 10
29.9734
 20
5.1260
  0
VERTEX
  8
84
 10
30.8957
 20
5.2082
  0
VERTEX
  8
84
 10
31.8151
 20
5.3148
  0
VERTEX
  8
84
 10
32.7876
 20
5.4853
  0
VERTEX
  8
84
 10
33.7555
 20
5.6825
  0
VERTEX
  8
84
 10
35.6516
 20
6.0939
  0
SEQEND
  8
84
  0
POINT
  8
2
 10
-2.1535
 20
3.8734
  0
POINT
  8
2
 10
5.8465
 20
3.9275
  0
POINT
  8
3
 10
8.8957
 20
4.0436
  0
POINT
  8
3
 10
11.9137
 20
4.1737
  0
POINT
  8
3
 10
15.2429
 20
4.3287
  0
POINT
  8
2
 10
17.9083
 20
4.4569
  0
POINT
  8
3
 10
19.6569
 20
4.5277
  0
POINT
  8
2
 10
21.4053
 20
4.5944
  0
POINT
  8
4
 10
21.4053
 20
4.5944
 30
0.0950
 39
0.1560
 50
-87.6789
  0
POINT
  8
2
 10
21.4053
 20
4.5944
  0
POINT
  8
3
 10
23.6698
 20
4.6916
  0
POINT
  8
3
 10
26.2258
 20
4.8477
  0
POINT
  8
2
 10
28.0569
 20
4.9748
  0
POINT
  8
3
 10
29.9734
 20
5.1260
  0
POINT
  8
3
 10
31.8151
 20
5.3148
  0
POINT
  8
3
 10
33.7555
 20
5.6825
  0
POINT
  8
2
 10
35.6516
 20
6.0939
  0
POLYLINE
  8
1
 66
1
 70
0
  0
VERTEX
  8
1
 10
35.6516
 20
6.0939
  0
VERTEX
  8
1
 10
35.8518
 20
5.6796
  0
VERTEX
  8
1
 10
36.2401
 20
5.1260
  0
VERTEX
  8
1
 10
36.6780
 20
4.8602
  0
VERTEX
  8
1
 10
37.4623
 20
4.6820
  0
VERTEX
  8
1
 10
37.4623
 20
4.6820
  0
VERTEX
  8
1
 10
38.5147
 20
4.5825
  0
VERTEX
  8
1
 10
39.2641
 20
4.5139
  0
VERTEX
  8
1
 10
39.9913
 20
4.4427
  0
VERTEX
  8
1
 10
41.1797
 20
4.3118
  0
VERTEX
  8
1
 10
42.4806
 20
4.1557
  0
VERTEX
  8
1
 10
43.3953
 20
4.0344
  0
SEQEND
  8
1
  0
POLYLINE
  8
84
 66
1
 70
0
  0
VERTEX
  8
84
 10
35.6516
 20
6.0939
  0
VERTEX
  8
84
 10
35.8518
 20
5.6796
  0
VERTEX
  8
84
 10
36.0274
 20
5.3880
  0
VERTEX
  8
84
 10
36.1276
 20
5.2517
  0
VERTEX
  8
84
 10
36.2401
 20
5.1260
  0
VERTEX
  8
84
 10
36.3393
 20
5.0445
  0
VERTEX
  8
84
 10
36.4467
 20
4.9738
  0
VERTEX
  8
84
 10
36.6780
 20
4.8602
  0
VERTEX
  8
84
 10
36.8698
 20
4.8017
  0
VERTEX
  8
84
 10
37.0654
 20
4.7560
  0
VERTEX
  8
84
 10
37.4623
 20
4.6820
  0
VERTEX
  8
84
 10
37.4623
 20
4.6820
  0
VERTEX
  8
84
 10
38.5147
 20
4.5825
  0
VERTEX
  8
84
 10
39.2641
 20
4.5139
  0
VERTEX
  8
84
 10
39.9913
 20
4.4427
  0
VERTEX
  8
84
 10
41.1797
 20
4.3118
  0
VERTEX
  8
84
 10
42.4806
 20
4.1557
  0
VERTEX
  8
84
 10
43.3953
 20
4.0344
  0
SEQEND
  8
84
  0
POINT
  8
2
 10
35.6516
 20
6.0939
  0
POINT
  8
3
 10
35.8518
 20
5.6796
  0
POINT
  8
3
 10
36.2401
 20
5.1260
  0
POINT
  8
3
 10
36.6780
 20
4.8602
  0
POINT
  8
2
 10
37.4623
 20
4.6820
  0
POINT
  8
4
 10
37.4623
 20
4.6820
 30
0.0950
 39
0.1560
 50
-97.9843
  0
POINT
  8
2
 10
37.4623
 20
4.6820
  0
POINT
  8
3
 10
38.5147
 20
4.5825
  0
POINT
  8
3
 10
39.2641
 20
4.5139
  0
POINT
  8
2
 10
39.9913
 20
4.4427
  0
POINT
  8
3
 10
41.1797
 20
4.3118
  0
POINT
  8
3
 10
42.4806
 20
4.1557
  0
POINT
  8
2
 10
43.3953
 20
4.0344
  0
POLYLINE
  8
1
 66
1
 70
0
  0
VERTEX
  8
1
 10
43.3953
 20
4.0344
  0
VERTEX
  8
1
 10
43.3804
 20
3.1860
  0
VERTEX
  8
1
 10
43.3920
 20
2.0725
  0
VERTEX
  8
1
 10
43.5556
 20
0.4163
  0
VERTEX
  8
1
 10
43.7801
 20
-1.6097
  0
VERTEX
  8
1
 10
43.9872
 20
-3.1295
  0
VERTEX
  8
1
 10
44.0953
 20
-3.9681
  0
VERTEX
  8
1
 10
44.0953
 20
-3.9681
  0
VERTEX
  8
1
 10
44.1347
 20
-4.3498
  0
SEQEND
  8
1
  0
POLYLINE
  8
84
 66
1
 70
0
  0
VERTEX
  8
84
 10
43.3953
 20
4.0344
  0
VERTEX
  8
84
 10
43.3804
 20
3.1860
  0
VERTEX
  8
84
 10
43.3783
 20
2.6290
  0
VERTEX
  8
84
 10
43.3920
 20
2.0725
  0
VERTEX
  8
84
 10
43.4636
 20
1.2436
  0
VERTEX
  8
84
 10
43.5556
 20
0.4163
  0
VERTEX
  8
84
 10
43.7801
 20
-1.6097
  0
VERTEX
  8
84
 10
43.9872
 20
-3.1295
  0
VERTEX
  8
84
 10
44.0953
 20
-3.9681
  0
VERTEX
  8
84
 10
44.0953
 20
-3.9681
  0
VERTEX
  8
84
 10
44.1347
 20
-4.3498
  0
SEQEND
  8
84
  0
POINT
  8
2
 10
43.3953
 20
4.0344
  0
POINT
  8
3
 10
43.3804
 20
3.1860
  0
POINT
  8
3
 10
43.3920
 20
2.0725
  0
POINT
  8
3
 10
43.5556
 20
0.4163
  0
POINT
  8
3
 10
43.7801
 20
-1.6097
  0
POINT
  8
3
 10
43.9872
 20
-3.1295
  0
POINT
  8
2
 10
44.0953
 20
-3.9681
  0
POINT
  8
4
 10
44.0953
 20
-3.9681
 30
0.0950
 39
0.1560
 50
-173.3789
  0
POINT
  8
2
 10
44.0953
 20
-3.9681
  0
POINT
  8
2
 10
44.1347
 20
-4.3498
  0
POLYLINE
  8
1
 66
1
 70
0
  0
VERTEX
  8
1
 10
44.1347
 20
-4.3498
  0
VERTEX
  8
1
 10
36.7069
 20
-6.3633
  0
VERTEX
  8
1
 10
36.7069
 20
-6.3633
  0
VERTEX
  8
1
 10
33.8495
 20
-5.8796
  0
VERTEX
  8
1
 10
31.8561
 20
-5.6401
  0
VERTEX
  8
1
 10
29.8694
 20
-5.4084
  0
VERTEX
  8
1
 10
28.3330
 20
-5.2750
  0
VERTEX
  8
1
 10
26.5742
 20
-5.1534
  0
VERTEX
  8
1
 10
23.7397
 20
-4.9613
  0
VERTEX
  8
1
 10
21.3971
 20
-4.8107
  0
VERTEX
  8
1
 10
21.3971
 20
-4.8107
  0
VERTEX
  8
1
 10
19.6495
 20
-4.7227
  0
VERTEX
  8
1
 10
17.9019
 20
-4.6362
  0
VERTEX
  8
1
 10
14.8696
 20
-4.4873
  0
VERTEX
  8
1
 10
12.1594
 20
-4.3481
  0
VERTEX
  8
1
 10
9.1508
 20
-4.2098
  0
VERTEX
  8
1
 10
5.8490
 20
-4.0680
  0
VERTEX
  8
1
 10
-2.1509
 20
-4.0138
  0
SEQEND
  8
1
  0
POLYLINE
  8
84
 66
1
 70
0
  0
VERTEX
  8
84
 10
44.1347
 20
-4.3498
  0
VERTEX
  8
84
 10
36.7069
 20
-6.3633
  0
VERTEX
  8
84
 10
36.7069
 20
-6.3633
  0
VERTEX
  8
84
 10
35.2795
 20
-6.1130
  0
VERTEX
  8
84
 10
33.8495
 20
-5.8796
  0
VERTEX
  8
84
 10
32.8536
 20
-5.7535
  0
VERTEX
  8
84
 10
31.8561
 20
-5.6401
  0
VERTEX
  8
84
 10
29.8694
 20
-5.4084
  0
VERTEX
  8
84
 10
28.3330
 20
-5.2750
  0
VERTEX
  8
84
 10
26.5742
 20
-5.1534
  0
VERTEX
  8
84
 10
23.7397
 20
-4.9613
  0
VERTEX
  8
84
 10
21.3971
 20
-4.8107
  0
VERTEX
  8
84
 10
21.3971
 20
-4.8107
  0
VERTEX
  8
84
 10
19.6495
 20
-4.7227
  0
VERTEX
  8
84
 10
17.9019
 20
-4.6362
  0
VERTEX
  8
84
 10
14.8696
 20
-4.4873
  0
VERTEX
  8
84
 10
12.1594
 20
-4.3481
  0
VERTEX
  8
84
 10
9.1508
 20
-4.2098
  0
VERTEX
  8
84
 10
5.8490
 20
-4.0680
  0
VERTEX
  8
84
 10
-2.1509
 20
-4.0138
  0
SEQEND
  8
84
  0
POINT
  8
2
 10
44.1347
 20
-4.3498
  0
POINT
  8
2
 10
36.7069
 20
-6.3633
  0
POINT
  8
4
 10
36.7069
 20
-6.3633
 30
0.0950
 39
0.1560
 50
92.6078
  0
POINT
  8
2
 10
36.7069
 20
-6.3633
  0
POINT
  8
3
 10
33.8495
 20
-5.8796
  0
POINT
  8
3
 10
31.8561
 20
-5.6401
  0
POINT
  8
3
 10
29.8694
 20
-5.4084
  0
POINT
  8
2
 10
28.3330
 20
-5.2750
  0
POINT
  8
3
 10
26.5742
 20
-5.1534
  0
POINT
  8
3
 10
23.7397
 20
-4.9613
  0
POINT
  8
2
 10
21.3971
 20
-4.8107
  0
POINT
  8
4
 10
21.3971
 20
-4.8107
 30
0.0950
 39
0.1560
 50
86.7210
  0
POINT
  8
2
 10
21.3971
 20
-4.8107
  0
POINT
  8
3
 10
19.6495
 20
-4.7227
  0
POINT
  8
2
 10
17.9019
 20
-4.6362
  0
POINT
  8
3
 10
14.8696
 20
-4.4873
  0
POINT
  8
3
 10
12.1594
 20
-4.3481
  0
POINT
  8
3
 10
9.1508
 20
-4.2098
  0
POINT
  8
2
 10
5.8490
 20
-4.0680
  0
POINT
  8
2
 10
-2.1509
 20
-4.0138
  0
LINE
  8
7
 10
-0.4717
 20
-0.1188
 11
41.3818
 21
-0.1188
  0
LINE
  8
5
 10
-0.4717
 20
-0.1188
 11
41.3818
 21
-0.1188
  0
POINT
  8
3
 10
-0.4717
 20
-0.1188
  0
POINT
  8
3
 10
41.3818
 20
-0.1188
  0
POINT
  8
2
 10
41.3818
 20
-0.1188
  0
POINT
  8
13
 10
-1.1506
 20
-0.1188
  0
TEXT
  8
13
 10
-1.1506
 20
-0.1188
 40
0.250
 50
0.0000
  1
NM
  7
STANDARD
  0
POINT
  8
2
 10
-1.1506
 20
-0.1188
  0
POINT
  8
13
 10
42.9951
 20
-0.1218
  0
TEXT
  8
13
 10
42.9951
 20
-0.1218
 40
0.250
 50
0.0000
  1
NM
  7
STANDARD
  0
POINT
  8
2
 10
42.9951
 20
-0.1218
  0
POINT
  8
13
 10
36.7068
 20
-3.9680
  0
TEXT
  8
13
 10
36.7068
 20
-3.9680
 40
0.250
 50
0.0000
  1
NM
  7
STANDARD
  0
POINT
  8
2
 10
36.7068
 20
-3.9680
  0
POINT
  8
13
 10
42.9951
 20
-3.7106
  0
TEXT
  8
13
 10
42.9951
 20
-3.7106
 40
0.250
 50
0.0000
  1
NM
  7
STANDARD
  0
POINT
  8
2
 10
42.9951
 20
-3.7106
  0
LINE
  8
100
 10
0.9134
 20
2.2692
 11
0.9043
 21
-2.3193
  0
POINT
  8
2
 10
0.9134
 20
2.2692
  0
POINT
  8
2
 10
0.9043
 20
-2.3193
  0
ENDBLK
  0
BLOCK
  8
0
  2
34 BACK DXF_34
 70
64
 10
0.0000
 20
0.0000
  0
TEXT
  8
1
 10
20.4529
 20
-0.8714
 40
0.250
 50
0.0000
  1
Piece Name: 34 BACK DXF
  7
STANDARD
  0
TEXT
  8
1
 10
20.4529
 20
-0.7314
 40
0.250
 50
0.0000
  1
Quantity: 1,0
  7
STANDARD
  0
TEXT
  8
1
 10
20.4529
 20
-0.5914
 40
0.250
 50
0.0000
  1
ANNOTATION
  7
STANDARD
  0
TEXT
  8
1
 10
20.4529
 20
-0.4514
 40
0.250
 50
0.0000
  1
CATEGORY: BACKP
  7
STANDARD
  0
TEXT
  8
1
 10
20.4529
 20
-0.3114
 40
0.250
 50
0.0000
  1
SIZE: 34
  7
STANDARD
  0
POLYLINE
  8
1
 66
1
 70
0
  0
VERTEX
  8
1
 10
-3.9351
 20
-4.9468
  0
VERTEX
  8
1
 10
-3.9350
 20
-4.1966
  0
VERTEX
  8
1
 10
-3.9350
 20
-4.1966
  0
VERTEX
  8
1
 10
-3.9333
 20
5.4245
  0
SEQEND
  8
1
  0
POLYLINE
  8
84
 66
1
 70
0
  0
VERTEX
  8
84
 10
-3.9351
 20
-4.9468
  0
VERTEX
  8
84
 10
-3.9350
 20
-4.1966
  0
VERTEX
  8
84
 10
-3.9350
 20
-4.1966
  0
VERTEX
  8
84
 10
-3.9333
 20
5.4245
  0
SEQEND
  8
84
  0
POINT
  8
2
 10
-3.9351
 20
-4.9468
  0
POINT
  8
2
 10
-3.9350
 20
-4.1966
  0
POINT
  8
4
 10
-3.9350
 20
-4.1966
 30
0.0950
 39
0.1560
 50
-0.0115
  0
POINT
  8
2
 10
-3.9350
 20
-4.1966
  0
POINT
  8
2
 10
-3.9333
 20
5.4245
  0
POLYLINE
  8
1
 66
1
 70
0
  0
VERTEX
  8
1
 10
-3.9333
 20
5.4245
  0
VERTEX
  8
1
 10
4.0669
 20
5.4954
  0
VERTEX
  8
1
 10
5.4611
 20
5.5617
  0
VERTEX
  8
1
 10
7.6603
 20
5.6633
  0
VERTEX
  8
1
 10
9.4709
 20
5.7512
  0
VERTEX
  8
1
 10
10.6320
 20
5.8050
  0
VERTEX
  8
1
 10
12.2060
 20
5.8958
  0
VERTEX
  8
1
 10
14.5165
 20
6.0242
  0
VERTEX
  8
1
 10
16.1191
 20
6.1147
  0
VERTEX
  8
1
 10
17.8753
 20
6.2272
  0
VERTEX
  8
1
 10
19.6099
 20
6.3306
  0
VERTEX
  8
1
 10
19.6099
 20
6.3306
  0
VERTEX
  8
1
 10
21.6087
 20
6.4413
  0
VERTEX
  8
1
 10
23.4245
 20
6.5607
  0
VERTEX
  8
1
 10
25.0127
 20
6.6845
  0
VERTEX
  8
1
 10
26.7923
 20
6.8570
  0
VERTEX
  8
1
 10
28.9402
 20
7.1598
  0
VERTEX
  8
1
 10
31.1888
 20
7.5598
  0
VERTEX
  8
1
 10
33.4020
 20
7.9466
  0
VERTEX
  8
1
 10
33.4020
 20
7.9466
  0
VERTEX
  8
1
 10
34.7393
 20
8.1964
  0
VERTEX
  8
1
 10
36.3000
 20
8.5003
  0
VERTEX
  8
1
 10
37.6418
 20
8.7542
  0
VERTEX
  8
1
 10
39.1848
 20
9.0101
  0
VERTEX
  8
1
 10
40.8359
 20
9.1322
  0
VERTEX
  8
1
 10
42.4236
 20
9.1535
  0
SEQEND
  8
1
  0
POLYLINE
  8
84
 66
1
 70
0
  0
VERTEX
  8
84
 10
-3.9333
 20
5.4245
  0
VERTEX
  8
84
 10
4.0669
 20
5.4954
  0
VERTEX
  8
84
 10
5.4611
 20
5.5617
  0
VERTEX
  8
84
 10
7.6603
 20
5.6633
  0
VERTEX
  8
84
 10
9.4709
 20
5.7512
  0
VERTEX
  8
84
 10
10.6320
 20
5.8050
  0
VERTEX
  8
84
 10
12.2060
 20
5.8958
  0
VERTEX
  8
84
 10
14.5165
 20
6.0242
  0
VERTEX
  8
84
 10
16.1191
 20
6.1147
  0
VERTEX
  8
84
 10
17.8753
 20
6.2272
  0
VERTEX
  8
84
 10
19.6099
 20
6.3306
  0
VERTEX
  8
84
 10
19.6099
 20
6.3306
  0
VERTEX
  8
84
 10
21.6087
 20
6.4413
  0
VERTEX
  8
84
 10
23.4245
 20
6.5607
  0
VERTEX
  8
84
 10
25.0127
 20
6.6845
  0
VERTEX
  8
84
 10
26.7923
 20
6.8570
  0
VERTEX
  8
84
 10
28.9402
 20
7.1598
  0
VERTEX
  8
84
 10
31.1888
 20
7.5598
  0
VERTEX
  8
84
 10
33.4020
 20
7.9466
  0
VERTEX
  8
84
 10
33.4020
 20
7.9466
  0
VERTEX
  8
84
 10
34.7393
 20
8.1964
  0
VERTEX
  8
84
 10
36.3000
 20
8.5003
  0
VERTEX
  8
84
 10
37.6418
 20
8.7542
  0
VERTEX
  8
84
 10
38.4121
 20
8.8907
  0
VERTEX
  8
84
 10
39.1848
 20
9.0101
  0
VERTEX
  8
84
 10
40.0091
 20
9.0864
  0
VERTEX
  8
84
 10
40.8359
 20
9.1322
  0
VERTEX
  8
84
 10
42.4236
 20
9.1535
  0
SEQEND
  8
84
  0
POINT
  8
2
 10
-3.9333
 20
5.4245
  0
POINT
  8
2
 10
4.0669
 20
5.4954
  0
POINT
  8
3
 10
5.4611
 20
5.5617
  0
POINT
  8
3
 10
7.6603
 20
5.6633
  0
POINT
  8
3
 10
9.4709
 20
5.7512
  0
POINT
  8
2
 10
10.6320
 20
5.8050
  0
POINT
  8
3
 10
12.2060
 20
5.8958
  0
POINT
  8
3
 10
14.5165
 20
6.0242
  0
POINT
  8
2
 10
16.1191
 20
6.1147
  0
POINT
  8
3
 10
17.8753
 20
6.2272
  0
POINT
  8
2
 10
19.6099
 20
6.3306
  0
POINT
  8
4
 10
19.6099
 20
6.3306
 30
0.0950
 39
0.1560
 50
-86.7096
  0
POINT
  8
2
 10
19.6099
 20
6.3306
  0
POINT
  8
3
 10
21.6087
 20
6.4413
  0
POINT
  8
3
 10
23.4245
 20
6.5607
  0
POINT
  8
3
 10
25.0127
 20
6.6845
  0
POINT
  8
2
 10
26.7923
 20
6.8570
  0
POINT
  8
3
 10
28.9402
 20
7.1598
  0
POINT
  8
3
 10
31.1888
 20
7.5598
  0
POINT
  8
2
 10
33.4020
 20
7.9466
  0
POINT
  8
4
 10
33.4020
 20
7.9466
 30
0.0950
 39
0.1560
 50
-79.7520
  0
POINT
  8
2
 10
33.4020
 20
7.9466
  0
POINT
  8
3
 10
34.7393
 20
8.1964
  0
POINT
  8
3
 10
36.3000
 20
8.5003
  0
POINT
  8
2
 10
37.6418
 20
8.7542
  0
POINT
  8
3
 10
39.1848
 20
9.0101
  0
POINT
  8
3
 10
40.8359
 20
9.1322
  0
POINT
  8
2
 10
42.4236
 20
9.1535
  0
POLYLINE
  8
1
 66
1
 70
0
  0
VERTEX
  8
1
 10
42.4236
 20
9.1535
  0
VERTEX
  8
1
 10
42.6555
 20
7.6862
  0
VERTEX
  8
1
 10
43.1018
 20
6.0432
  0
VERTEX
  8
1
 10
43.1018
 20
6.0432
  0
VERTEX
  8
1
 10
43.2817
 20
4.8607
  0
VERTEX
  8
1
 10
43.4081
 20
4.3562
  0
VERTEX
  8
1
 10
43.6299
 20
3.5148
  0
VERTEX
  8
1
 10
43.7060
 20
3.1335
  0
VERTEX
  8
1
 10
43.7060
 20
3.1335
  0
VERTEX
  8
1
 10
43.7567
 20
2.7730
  0
VERTEX
  8
1
 10
43.9038
 20
1.4393
  0
VERTEX
  8
1
 10
44.0347
 20
0.6768
  0
VERTEX
  8
1
 10
44.2465
 20
-0.3502
  0
VERTEX
  8
1
 10
44.5894
 20
-2.2415
  0
VERTEX
  8
1
 10
44.5894
 20
-2.2415
  0
VERTEX
  8
1
 10
44.7166
 20
-2.9740
  0
VERTEX
  8
1
 10
44.8409
 20
-3.7148
  0
SEQEND
  8
1
  0
POLYLINE
  8
84
 66
1
 70
0
  0
VERTEX
  8
84
 10
42.4236
 20
9.1535
  0
VERTEX
  8
84
 10
42.5298
 20
8.4180
  0
VERTEX
  8
84
 10
42.6555
 20
7.6862
  0
VERTEX
  8
84
 10
42.8677
 20
6.8620
  0
VERTEX
  8
84
 10
43.1018
 20
6.0432
  0
VERTEX
  8
84
 10
43.1018
 20
6.0432
  0
VERTEX
  8
84
 10
43.1849
 20
5.4507
  0
VERTEX
  8
84
 10
43.2817
 20
4.8607
  0
VERTEX
  8
84
 10
43.4081
 20
4.3562
  0
VERTEX
  8
84
 10
43.6299
 20
3.5148
  0
VERTEX
  8
84
 10
43.7060
 20
3.1335
  0
VERTEX
  8
84
 10
43.7060
 20
3.1335
  0
VERTEX
  8
84
 10
43.7567
 20
2.7730
  0
VERTEX
  8
84
 10
43.9038
 20
1.4393
  0
VERTEX
  8
84
 10
44.0347
 20
0.6768
  0
VERTEX
  8
84
 10
44.2465
 20
-0.3502
  0
VERTEX
  8
84
 10
44.5894
 20
-2.2415
  0
VERTEX
  8
84
 10
44.5894
 20
-2.2415
  0
VERTEX
  8
84
 10
44.7166
 20
-2.9740
  0
VERTEX
  8
84
 10
44.8409
 20
-3.7148
  0
SEQEND
  8
84
  0
POINT
  8
2
 10
42.4236
 20
9.1535
  0
POINT
  8
3
 10
42.6555
 20
7.6862
  0
POINT
  8
2
 10
43.1018
 20
6.0432
  0
POINT
  8
4
 10
43.1018
 20
6.0432
 30
0.0950
 39
0.1560
 50
-168.0293
  0
POINT
  8
2
 10
43.1018
 20
6.0432
  0
POINT
  8
3
 10
43.2817
 20
4.8607
  0
POINT
  8
3
 10
43.4081
 20
4.3562
  0
POINT
  8
2
 10
43.6299
 20
3.5148
  0
POINT
  8
2
 10
43.7060
 20
3.1335
  0
POINT
  8
2
 10
43.7060
 20
3.1335
  0
POINT
  8
2
 10
43.7567
 20
2.7730
  0
POINT
  8
3
 10
43.9038
 20
1.4393
  0
POINT
  8
3
 10
44.0347
 20
0.6768
  0
POINT
  8
3
 10
44.2465
 20
-0.3502
  0
POINT
  8
2
 10
44.5894
 20
-2.2415
  0
POINT
  8
4
 10
44.5894
 20
-2.2415
 30
0.0950
 39
0.1560
 50
-169.9329
  0
POINT
  8
2
 10
44.5894
 20
-2.2415
  0
POINT
  8
3
 10
44.7166
 20
-2.9740
  0
POINT
  8
2
 10
44.8409
 20
-3.7148
  0
POLYLINE
  8
1
 66
1
 70
0
  0
VERTEX
  8
1
 10
44.8409
 20
-3.7148
  0
VERTEX
  8
1
 10
42.7089
 20
-3.8440
  0
VERTEX
  8
1
 10
40.3304
 20
-3.9477
  0
VERTEX
  8
1
 10
39.1322
 20
-3.9928
  0
VERTEX
  8
1
 10
37.4865
 20
-4.0466
  0
VERTEX
  8
1
 10
36.1137
 20
-4.0898
  0
VERTEX
  8
1
 10
36.1137
 20
-4.0898
  0
VERTEX
  8
1
 10
35.3999
 20
-4.2770
  0
VERTEX
  8
1
 10
34.3559
 20
-4.7818
  0
VERTEX
  8
1
 10
33.5132
 20
-5.8487
  0
VERTEX
  8
1
 10
33.3102
 20
-7.2304
  0
VERTEX
  8
1
 10
33.2712
 20
-8.9581
  0
VERTEX
  8
1
 10
33.2402
 20
-10.1449
  0
VERTEX
  8
1
 10
32.8550
 20
-10.8964
  0
SEQEND
  8
1
  0
POLYLINE
  8
84
 66
1
 70
0
  0
VERTEX
  8
84
 10
44.8409
 20
-3.7148
  0
VERTEX
  8
84
 10
42.7089
 20
-3.8440
  0
VERTEX
  8
84
 10
40.3304
 20
-3.9477
  0
VERTEX
  8
84
 10
39.1322
 20
-3.9928
  0
VERTEX
  8
84
 10
37.4865
 20
-4.0466
  0
VERTEX
  8
84
 10
36.1137
 20
-4.0898
  0
VERTEX
  8
84
 10
36.1137
 20
-4.0898
  0
VERTEX
  8
84
 10
35.7542
 20
-4.1751
  0
VERTEX
  8
84
 10
35.3999
 20
-4.2770
  0
VERTEX
  8
84
 10
35.1243
 20
-4.3751
  0
VERTEX
  8
84
 10
34.8554
 20
-4.4896
  0
VERTEX
  8
84
 10
34.5980
 20
-4.6233
  0
VERTEX
  8
84
 10
34.3559
 20
-4.7818
  0
VERTEX
  8
84
 10
34.0988
 20
-5.0095
  0
VERTEX
  8
84
 10
33.8706
 20
-5.2666
  0
VERTEX
  8
84
 10
33.6717
 20
-5.5459
  0
VERTEX
  8
84
 10
33.5862
 20
-5.6942
  0
VERTEX
  8
84
 10
33.5132
 20
-5.8487
  0
VERTEX
  8
84
 10
33.4582
 20
-6.0134
  0
VERTEX
  8
84
 10
33.4160
 20
-6.1821
  0
VERTEX
  8
84
 10
33.3583
 20
-6.5262
  0
VERTEX
  8
84
 10
33.3262
 20
-6.8775
  0
VERTEX
  8
84
 10
33.3102
 20
-7.2304
  0
VERTEX
  8
84
 10
33.2780
 20
-8.0936
  0
VERTEX
  8
84
 10
33.2712
 20
-8.9581
  0
VERTEX
  8
84
 10
33.2402
 20
-10.1449
  0
VERTEX
  8
84
 10
32.8550
 20
-10.8964
  0
SEQEND
  8
84
  0
POINT
  8
2
 10
44.8409
 20
-3.7148
  0
POINT
  8
3
 10
42.7089
 20
-3.8440
  0
POINT
  8
2
 10
40.3304
 20
-3.9477
  0
POINT
  8
3
 10
39.1322
 20
-3.9928
  0
POINT
  8
3
 10
37.4865
 20
-4.0466
  0
POINT
  8
2
 10
36.1137
 20
-4.0898
  0
POINT
  8
4
 10
36.1137
 20
-4.0898
 30
0.0950
 39
0.1560
 50
97.5678
  0
POINT
  8
2
 10
36.1137
 20
-4.0898
  0
POINT
  8
3
 10
35.3999
 20
-4.2770
  0
POINT
  8
3
 10
34.3559
 20
-4.7818
  0
POINT
  8
3
 10
33.5132
 20
-5.8487
  0
POINT
  8
3
 10
33.3102
 20
-7.2304
  0
POINT
  8
3
 10
33.2712
 20
-8.9581
  0
POINT
  8
2
 10
33.2402
 20
-10.1449
  0
POINT
  8
2
 10
32.8550
 20
-10.8964
  0
POLYLINE
  8
1
 66
1
 70
0
  0
VERTEX
  8
1
 10
32.8550
 20
-10.8964
  0
VERTEX
  8
1
 10
31.5519
 20
-10.1037
  0
VERTEX
  8
1
 10
30.0547
 20
-9.2408
  0
VERTEX
  8
1
 10
28.7358
 20
-8.5297
  0
VERTEX
  8
1
 10
27.3654
 20
-7.8552
  0
VERTEX
  8
1
 10
26.0427
 20
-7.2637
  0
VERTEX
  8
1
 10
24.7055
 20
-6.9073
  0
VERTEX
  8
1
 10
22.8559
 20
-6.4917
  0
VERTEX
  8
1
 10
21.2549
 20
-6.1769
  0
VERTEX
  8
1
 10
19.6146
 20
-5.9020
  0
VERTEX
  8
1
 10
19.6146
 20
-5.9020
  0
VERTEX
  8
1
 10
17.9794
 20
-5.7946
  0
VERTEX
  8
1
 10
16.1242
 20
-5.6813
  0
VERTEX
  8
1
 10
14.1699
 20
-5.5642
  0
VERTEX
  8
1
 10
10.4621
 20
-5.3538
  0
VERTEX
  8
1
 10
8.7239
 20
-5.2425
  0
VERTEX
  8
1
 10
7.0206
 20
-5.1294
  0
VERTEX
  8
1
 10
5.4211
 20
-5.0750
  0
VERTEX
  8
1
 10
4.0647
 20
-5.0286
  0
VERTEX
  8
1
 10
-3.9351
 20
-4.9468
  0
SEQEND
  8
1
  0
POLYLINE
  8
84
 66
1
 70
0
  0
VERTEX
  8
84
 10
32.8550
 20
-10.8964
  0
VERTEX
  8
84
 10
31.5519
 20
-10.1037
  0
VERTEX
  8
84
 10
30.0547
 20
-9.2408
  0
VERTEX
  8
84
 10
29.3981
 20
-8.8800
  0
VERTEX
  8
84
 10
28.7358
 20
-8.5297
  0
VERTEX
  8
84
 10
28.0537
 20
-8.1863
  0
VERTEX
  8
84
 10
27.3654
 20
-7.8552
  0
VERTEX
  8
84
 10
26.0427
 20
-7.2637
  0
VERTEX
  8
84
 10
24.7055
 20
-6.9073
  0
VERTEX
  8
84
 10
23.7824
 20
-6.6920
  0
VERTEX
  8
84
 10
22.8559
 20
-6.4917
  0
VERTEX
  8
84
 10
21.2549
 20
-6.1769
  0
VERTEX
  8
84
 10
19.6146
 20
-5.9020
  0
VERTEX
  8
84
 10
19.6146
 20
-5.9020
  0
VERTEX
  8
84
 10
17.9794
 20
-5.7946
  0
VERTEX
  8
84
 10
16.1242
 20
-5.6813
  0
VERTEX
  8
84
 10
14.1699
 20
-5.5642
  0
VERTEX
  8
84
 10
10.4621
 20
-5.3538
  0
VERTEX
  8
84
 10
8.7239
 20
-5.2425
  0
VERTEX
  8
84
 10
7.0206
 20
-5.1294
  0
VERTEX
  8
84
 10
5.4211
 20
-5.0750
  0
VERTEX
  8
84
 10
4.0647
 20
-5.0286
  0
VERTEX
  8
84
 10
-3.9351
 20
-4.9468
  0
SEQEND
  8
84
  0
POINT
  8
2
 10
32.8550
 20
-10.8964
  0
POINT
  8
3
 10
31.5519
 20
-10.1037
  0
POINT
  8
3
 10
30.0547
 20
-9.2408
  0
POINT
  8
3
 10
28.7358
 20
-8.5297
  0
POINT
  8
3
 10
27.3654
 20
-7.8552
  0
POINT
  8
2
 10
26.0427
 20
-7.2637
  0
POINT
  8
3
 10
24.7055
 20
-6.9073
  0
POINT
  8
3
 10
22.8559
 20
-6.4917
  0
POINT
  8
3
 10
21.2549
 20
-6.1769
  0
POINT
  8
2
 10
19.6146
 20
-5.9020
  0
POINT
  8
4
 10
19.6146
 20
-5.9020
 30
0.0950
 39
0.1560
 50
83.3618
  0
POINT
  8
2
 10
19.6146
 20
-5.9020
  0
POINT
  8
3
 10
17.9794
 20
-5.7946
  0
POINT
  8
2
 10
16.1242
 20
-5.6813
  0
POINT
  8
3
 10
14.1699
 20
-5.5642
  0
POINT
  8
2
 10
10.4621
 20
-5.3538
  0
POINT
  8
3
 10
8.7239
 20
-5.2425
  0
POINT
  8
3
 10
7.0206
 20
-5.1294
  0
POINT
  8
3
 10
5.4211
 20
-5.0750
  0
POINT
  8
2
 10
4.0647
 20
-5.0286
  0
POINT
  8
2
 10
-3.9351
 20
-4.9468
  0
LINE
  8
7
 10
-2.5865
 20
0.5614
 11
41.6172
 21
0.5614
  0
LINE
  8
5
 10
-2.5865
 20
0.5614
 11
41.6172
 21
0.5614
  0
POINT
  8
3
 10
-2.5865
 20
0.5614
  0
POINT
  8
3
 10
41.6172
 20
0.5614
  0
POINT
  8
2
 10
41.6172
 20
0.5614
  0
POINT
  8
13
 10
40.3383
 20
5.4516
  0
TEXT
  8
13
 10
40.3383
 20
5.4516
 40
0.250
 50
0.0000
  1
NM
  7
STANDARD
  0
POINT
  8
2
 10
40.3383
 20
5.4516
  0
POINT
  8
13
 10
40.8297
 20
2.5900
  0
TEXT
  8
13
 10
40.8297
 20
2.5900
 40
0.250
 50
0.0000
  1
NM
  7
STANDARD
  0
POINT
  8
2
 10
40.8297
 20
2.5900
  0
POINT
  8
13
 10
40.0782
 20
2.4632
  0
TEXT
  8
13
 10
40.0782
 20
2.4632
 40
0.250
 50
0.0000
  1
D
  7
STANDARD
  0
POINT
  8
2
 10
40.0782
 20
2.4632
  0
POINT
  8
13
 10
39.6194
 20
5.3171
  0
TEXT
  8
13
 10
39.6194
 20
5.3171
 40
0.250
 50
0.0000
  1
D
  7
STANDARD
  0
POINT
  8
2
 10
39.6194
 20
5.3171
  0
POINT
  8
13
 10
36.1137
 20
-2.2415
  0
TEXT
  8
13
 10
36.1137
 20
-2.2415
 40
0.250
 50
0.0000
  1
NM
  7
STANDARD
  0
POINT
  8
2
 10
36.1137
 20
-2.2415
  0
POINT
  8
13
 10
41.2079
 20
7.7617
  0
TEXT
  8
13
 10
41.2079
 20
7.7617
 40
0.250
 50
0.0000
  1
NM
  7
STANDARD
  0
POINT
  8
2
 10
41.2079
 20
7.7617
  0
POINT
  8
13
 10
41.2079
 20
-3.0306
  0
TEXT
  8
13
 10
41.2079
 20
-3.0306
 40
0.250
 50
0.0000
  1
NM
  7
STANDARD
  0
POINT
  8
2
 10
41.2079
 20
-3.0306
  0
LINE
  8
100
 10
-0.7780
 20
3.1539
 11
-0.7418
 21
-2.0937
  0
POINT
  8
2
 10
-0.7780
 20
3.1539
  0
POINT
  8
2
 10
-0.7418
 20
-2.0937
  0
ENDBLK
  0
BLOCK
  8
0
  2
38 BACK DXF_34
 70
64
 10
0.0000
 20
0.0000
  0
TEXT
  8
1
 10
20.4529
 20
-0.8715
 40
0.250
 50
0.0000
  1
Piece Name: 38 BACK DXF
  7
STANDARD
  0
TEXT
  8
1
 10
20.4529
 20
-0.7315
 40
0.250
 50
0.0000
  1
Quantity: 1,0
  7
STANDARD
  0
TEXT
  8
1
 10
20.4529
 20
-0.5915
 40
0.250
 50
0.0000
  1
ANNOTATION
  7
STANDARD
  0
TEXT
  8
1
 10
20.4529
 20
-0.4515
 40
0.250
 50
0.0000
  1
CATEGORY: BACKP
  7
STANDARD
  0
TEXT
  8
1
 10
20.4529
 20
-0.3115
 40
0.250
 50
0.0000
  1
SIZE: 34
  7
STANDARD
  0
POLYLINE
  8
1
 66
1
 70
0
  0
VERTEX
  8
1
 10
-4.1851
 20
-5.0808
  0
VERTEX
  8
1
 10
-4.1850
 20
-4.3306
  0
VERTEX
  8
1
 10
-4.1850
 20
-4.3306
  0
VERTEX
  8
1
 10
-4.1833
 20
5.5385
  0
SEQEND
  8
1
  0
POLYLINE
  8
84
 66
1
 70
0
  0
VERTEX
  8
84
 10
-4.1851
 20
-5.0808
  0
VERTEX
  8
84
 10
-4.1850
 20
-4.3306
  0
VERTEX
  8
84
 10
-4.1850
 20
-4.3306
  0
VERTEX
  8
84
 10
-4.1833
 20
5.5385
  0
SEQEND
  8
84
  0
POINT
  8
2
 10
-4.1851
 20
-5.0808
  0
POINT
  8
2
 10
-4.1850
 20
-4.3306
  0
POINT
  8
4
 10
-4.1850
 20
-4.3306
 30
0.0950
 39
0.1560
 50
-0.0115
  0
POINT
  8
2
 10
-4.1850
 20
-4.3306
  0
POINT
  8
2
 10
-4.1833
 20
5.5385
  0
POLYLINE
  8
1
 66
1
 70
0
  0
VERTEX
  8
1
 10
-4.1833
 20
5.5385
  0
VERTEX
  8
1
 10
3.8169
 20
5.6094
  0
VERTEX
  8
1
 10
5.2110
 20
5.6830
  0
VERTEX
  8
1
 10
7.4103
 20
5.7962
  0
VERTEX
  8
1
 10
9.2208
 20
5.8935
  0
VERTEX
  8
1
 10
10.3820
 20
5.9534
  0
VERTEX
  8
1
 10
11.9559
 20
6.0537
  0
VERTEX
  8
1
 10
14.2665
 20
6.1960
  0
VERTEX
  8
1
 10
15.8691
 20
6.2964
  0
VERTEX
  8
1
 10
17.6252
 20
6.4391
  0
VERTEX
  8
1
 10
19.3599
 20
6.5726
  0
VERTEX
  8
1
 10
19.3599
 20
6.5726
  0
VERTEX
  8
1
 10
21.3570
 20
6.7133
  0
VERTEX
  8
1
 10
23.1709
 20
6.8600
  0
VERTEX
  8
1
 10
24.7573
 20
7.0077
  0
VERTEX
  8
1
 10
26.5343
 20
7.2071
  0
VERTEX
  8
1
 10
28.6855
 20
7.5421
  0
VERTEX
  8
1
 10
30.9364
 20
7.9762
  0
VERTEX
  8
1
 10
33.1520
 20
8.3966
  0
VERTEX
  8
1
 10
33.1520
 20
8.3966
  0
VERTEX
  8
1
 10
34.6470
 20
8.6962
  0
VERTEX
  8
1
 10
36.3917
 20
9.0599
  0
VERTEX
  8
1
 10
37.8918
 20
9.3642
  0
VERTEX
  8
1
 10
39.4348
 20
9.6201
  0
VERTEX
  8
1
 10
41.0859
 20
9.7422
  0
VERTEX
  8
1
 10
42.6736
 20
9.7635
  0
SEQEND
  8
1
  0
POLYLINE
  8
84
 66
1
 70
0
  0
VERTEX
  8
84
 10
-4.1833
 20
5.5385
  0
VERTEX
  8
84
 10
3.8169
 20
5.6094
  0
VERTEX
  8
84
 10
5.2110
 20
5.6830
  0
VERTEX
  8
84
 10
7.4103
 20
5.7962
  0
VERTEX
  8
84
 10
9.2208
 20
5.8935
  0
VERTEX
  8
84
 10
10.3820
 20
5.9534
  0
VERTEX
  8
84
 10
11.9559
 20
6.0537
  0
VERTEX
  8
84
 10
14.2665
 20
6.1960
  0
VERTEX
  8
84
 10
15.8691
 20
6.2964
  0
VERTEX
  8
84
 10
17.6252
 20
6.4391
  0
VERTEX
  8
84
 10
19.3599
 20
6.5726
  0
VERTEX
  8
84
 10
19.3599
 20
6.5726
  0
VERTEX
  8
84
 10
21.3570
 20
6.7133
  0
VERTEX
  8
84
 10
23.1709
 20
6.8600
  0
VERTEX
  8
84
 10
24.7573
 20
7.0077
  0
VERTEX
  8
84
 10
26.5343
 20
7.2071
  0
VERTEX
  8
84
 10
28.6855
 20
7.5421
  0
VERTEX
  8
84
 10
30.9364
 20
7.9762
  0
VERTEX
  8
84
 10
33.1520
 20
8.3966
  0
VERTEX
  8
84
 10
33.1520
 20
8.3966
  0
VERTEX
  8
84
 10
34.6470
 20
8.6962
  0
VERTEX
  8
84
 10
36.3917
 20
9.0599
  0
VERTEX
  8
84
 10
37.8918
 20
9.3642
  0
VERTEX
  8
84
 10
38.6621
 20
9.5007
  0
VERTEX
  8
84
 10
39.4348
 20
9.6201
  0
VERTEX
  8
84
 10
40.2591
 20
9.6964
  0
VERTEX
  8
84
 10
41.0859
 20
9.7422
  0
VERTEX
  8
84
 10
42.6736
 20
9.7635
  0
SEQEND
  8
84
  0
POINT
  8
2
 10
-4.1833
 20
5.5385
  0
POINT
  8
2
 10
3.8169
 20
5.6094
  0
POINT
  8
3
 10
5.2110
 20
5.6830
  0
POINT
  8
3
 10
7.4103
 20
5.7962
  0
POINT
  8
3
 10
9.2208
 20
5.8935
  0
POINT
  8
2
 10
10.3820
 20
5.9534
  0
POINT
  8
3
 10
11.9559
 20
6.0537
  0
POINT
  8
3
 10
14.2665
 20
6.1960
  0
POINT
  8
2
 10
15.8691
 20
6.2964
  0
POINT
  8
3
 10
17.6252
 20
6.4391
  0
POINT
  8
2
 10
19.3599
 20
6.5726
  0
POINT
  8
4
 10
19.3599
 20
6.5726
 30
0.0950
 39
0.1560
 50
-85.7850
  0
POINT
  8
2
 10
19.3599
 20
6.5726
  0
POINT
  8
3
 10
21.3570
 20
6.7133
  0
POINT
  8
3
 10
23.1709
 20
6.8600
  0
POINT
  8
3
 10
24.7573
 20
7.0077
  0
POINT
  8
2
 10
26.5343
 20
7.2071
  0
POINT
  8
3
 10
28.6855
 20
7.5421
  0
POINT
  8
3
 10
30.9364
 20
7.9762
  0
POINT
  8
2
 10
33.1520
 20
8.3966
  0
POINT
  8
4
 10
33.1520
 20
8.3966
 30
0.0950
 39
0.1560
 50
-78.9597
  0
POINT
  8
2
 10
33.1520
 20
8.3966
  0
POINT
  8
3
 10
34.6470
 20
8.6962
  0
POINT
  8
3
 10
36.3917
 20
9.0599
  0
POINT
  8
2
 10
37.8918
 20
9.3642
  0
POINT
  8
3
 10
39.4348
 20
9.6201
  0
POINT
  8
3
 10
41.0859
 20
9.7422
  0
POINT
  8
2
 10
42.6736
 20
9.7635
  0
POLYLINE
  8
1
 66
1
 70
0
  0
VERTEX
  8
1
 10
42.6736
 20
9.7635
  0
VERTEX
  8
1
 10
42.9000
 20
8.2030
  0
VERTEX
  8
1
 10
43.3518
 20
6.4532
  0
VERTEX
  8
1
 10
43.3518
 20
6.4532
  0
VERTEX
  8
1
 10
43.5317
 20
5.2707
  0
VERTEX
  8
1
 10
43.6581
 20
4.7662
  0
VERTEX
  8
1
 10
43.8799
 20
3.9247
  0
VERTEX
  8
1
 10
43.9560
 20
3.5435
  0
VERTEX
  8
1
 10
43.9560
 20
3.5435
  0
VERTEX
  8
1
 10
44.0067
 20
3.1831
  0
VERTEX
  8
1
 10
44.1422
 20
1.6385
  0
VERTEX
  8
1
 10
44.2738
 20
0.7541
  0
VERTEX
  8
1
 10
44.4920
 20
-0.4378
  0
VERTEX
  8
1
 10
44.8394
 20
-2.6315
  0
VERTEX
  8
1
 10
44.8394
 20
-2.6315
  0
VERTEX
  8
1
 10
44.9666
 20
-3.3639
  0
VERTEX
  8
1
 10
45.0909
 20
-4.1048
  0
SEQEND
  8
1
  0
POLYLINE
  8
84
 66
1
 70
0
  0
VERTEX
  8
84
 10
42.6736
 20
9.7635
  0
VERTEX
  8
84
 10
42.7765
 20
8.9814
  0
VERTEX
  8
84
 10
42.9000
 20
8.2030
  0
VERTEX
  8
84
 10
43.0012
 20
7.7628
  0
VERTEX
  8
84
 10
43.1142
 20
7.3254
  0
VERTEX
  8
84
 10
43.3518
 20
6.4532
  0
VERTEX
  8
84
 10
43.3518
 20
6.4532
  0
VERTEX
  8
84
 10
43.4349
 20
5.8607
  0
VERTEX
  8
84
 10
43.5317
 20
5.2707
  0
VERTEX
  8
84
 10
43.6581
 20
4.7662
  0
VERTEX
  8
84
 10
43.8799
 20
3.9247
  0
VERTEX
  8
84
 10
43.9560
 20
3.5435
  0
VERTEX
  8
84
 10
43.9560
 20
3.5435
  0
VERTEX
  8
84
 10
44.0067
 20
3.1831
  0
VERTEX
  8
84
 10
44.1422
 20
1.6385
  0
VERTEX
  8
84
 10
44.2738
 20
0.7541
  0
VERTEX
  8
84
 10
44.4920
 20
-0.4378
  0
VERTEX
  8
84
 10
44.8394
 20
-2.6315
  0
VERTEX
  8
84
 10
44.8394
 20
-2.6315
  0
VERTEX
  8
84
 10
44.9666
 20
-3.3639
  0
VERTEX
  8
84
 10
45.0909
 20
-4.1048
  0
SEQEND
  8
84
  0
POINT
  8
2
 10
42.6736
 20
9.7635
  0
POINT
  8
3
 10
42.9000
 20
8.2030
  0
POINT
  8
2
 10
43.3518
 20
6.4532
  0
POINT
  8
4
 10
43.3518
 20
6.4532
 30
0.0950
 39
0.1560
 50
-168.3867
  0
POINT
  8
2
 10
43.3518
 20
6.4532
  0
POINT
  8
3
 10
43.5317
 20
5.2707
  0
POINT
  8
3
 10
43.6581
 20
4.7662
  0
POINT
  8
2
 10
43.8799
 20
3.9247
  0
POINT
  8
2
 10
43.9560
 20
3.5435
  0
POINT
  8
2
 10
43.9560
 20
3.5435
  0
POINT
  8
2
 10
44.0067
 20
3.1831
  0
POINT
  8
3
 10
44.1422
 20
1.6385
  0
POINT
  8
3
 10
44.2738
 20
0.7541
  0
POINT
  8
3
 10
44.4920
 20
-0.4378
  0
POINT
  8
2
 10
44.8394
 20
-2.6315
  0
POINT
  8
4
 10
44.8394
 20
-2.6315
 30
0.0950
 39
0.1560
 50
-170.5725
  0
POINT
  8
2
 10
44.8394
 20
-2.6315
  0
POINT
  8
3
 10
44.9666
 20
-3.3639
  0
POINT
  8
2
 10
45.0909
 20
-4.1048
  0
POLYLINE
  8
1
 66
1
 70
0
  0
VERTEX
  8
1
 10
45.0909
 20
-4.1048
  0
VERTEX
  8
1
 10
42.8718
 20
-4.2348
  0
VERTEX
  8
1
 10
40.3964
 20
-4.3377
  0
VERTEX
  8
1
 10
39.1083
 20
-4.3832
  0
VERTEX
  8
1
 10
37.3393
 20
-4.4369
  0
VERTEX
  8
1
 10
35.8637
 20
-4.4798
  0
VERTEX
  8
1
 10
35.8637
 20
-4.4798
  0
VERTEX
  8
1
 10
35.1222
 20
-4.6719
  0
VERTEX
  8
1
 10
34.0371
 20
-5.1923
  0
VERTEX
  8
1
 10
33.1591
 20
-6.2971
  0
VERTEX
  8
1
 10
32.9441
 20
-7.7304
  0
VERTEX
  8
1
 10
32.8981
 20
-9.5233
  0
VERTEX
  8
1
 10
32.8622
 20
-10.7550
  0
VERTEX
  8
1
 10
32.4770
 20
-11.5065
  0
SEQEND
  8
1
  0
POLYLINE
  8
84
 66
1
 70
0
  0
VERTEX
  8
84
 10
45.0909
 20
-4.1048
  0
VERTEX
  8
84
 10
42.8718
 20
-4.2348
  0
VERTEX
  8
84
 10
40.3964
 20
-4.3377
  0
VERTEX
  8
84
 10
39.1083
 20
-4.3832
  0
VERTEX
  8
84
 10
37.3393
 20
-4.4369
  0
VERTEX
  8
84
 10
35.8637
 20
-4.4798
  0
VERTEX
  8
84
 10
35.8637
 20
-4.4798
  0
VERTEX
  8
84
 10
35.4902
 20
-4.5672
  0
VERTEX
  8
84
 10
35.1222
 20
-4.6719
  0
VERTEX
  8
84
 10
34.8358
 20
-4.7728
  0
VERTEX
  8
84
 10
34.5564
 20
-4.8908
  0
VERTEX
  8
84
 10
34.2888
 20
-5.0287
  0
VERTEX
  8
84
 10
34.0371
 20
-5.1923
  0
VERTEX
  8
84
 10
33.7695
 20
-5.4279
  0
VERTEX
  8
84
 10
33.5319
 20
-5.6940
  0
VERTEX
  8
84
 10
33.3245
 20
-5.9832
  0
VERTEX
  8
84
 10
33.2353
 20
-6.1368
  0
VERTEX
  8
84
 10
33.1591
 20
-6.2971
  0
VERTEX
  8
84
 10
33.1015
 20
-6.4678
  0
VERTEX
  8
84
 10
33.0572
 20
-6.6427
  0
VERTEX
  8
84
 10
32.9963
 20
-6.9997
  0
VERTEX
  8
84
 10
32.9618
 20
-7.3642
  0
VERTEX
  8
84
 10
32.9441
 20
-7.7304
  0
VERTEX
  8
84
 10
32.9080
 20
-8.6261
  0
VERTEX
  8
84
 10
32.8981
 20
-9.5233
  0
VERTEX
  8
84
 10
32.8622
 20
-10.7550
  0
VERTEX
  8
84
 10
32.4770
 20
-11.5065
  0
SEQEND
  8
84
  0
POINT
  8
2
 10
45.0909
 20
-4.1048
  0
POINT
  8
3
 10
42.8718
 20
-4.2348
  0
POINT
  8
2
 10
40.3964
 20
-4.3377
  0
POINT
  8
3
 10
39.1083
 20
-4.3832
  0
POINT
  8
3
 10
37.3393
 20
-4.4369
  0
POINT
  8
2
 10
35.8637
 20
-4.4798
  0
POINT
  8
4
 10
35.8637
 20
-4.4798
 30
0.0950
 39
0.1560
 50
97.4178
  0
POINT
  8
2
 10
35.8637
 20
-4.4798
  0
POINT
  8
3
 10
35.1222
 20
-4.6719
  0
POINT
  8
3
 10
34.0371
 20
-5.1923
  0
POINT
  8
3
 10
33.1591
 20
-6.2971
  0
POINT
  8
3
 10
32.9441
 20
-7.7304
  0
POINT
  8
3
 10
32.8981
 20
-9.5233
  0
POINT
  8
2
 10
32.8622
 20
-10.7550
  0
POINT
  8
2
 10
32.4770
 20
-11.5065
  0
POLYLINE
  8
1
 66
1
 70
0
  0
VERTEX
  8
1
 10
32.4770
 20
-11.5065
  0
VERTEX
  8
1
 10
31.1914
 20
-10.6831
  0
VERTEX
  8
1
 10
29.7133
 20
-9.7850
  0
VERTEX
  8
1
 10
28.4101
 20
-9.0429
  0
VERTEX
  8
1
 10
27.0545
 20
-8.3362
  0
VERTEX
  8
1
 10
25.7447
 20
-7.7137
  0
VERTEX
  8
1
 10
24.4196
 20
-7.3183
  0
VERTEX
  8
1
 10
22.5845
 20
-6.8487
  0
VERTEX
  8
1
 10
20.9947
 20
-6.4870
  0
VERTEX
  8
1
 10
19.3646
 20
-6.1640
  0
VERTEX
  8
1
 10
19.3646
 20
-6.1640
  0
VERTEX
  8
1
 10
17.7294
 20
-6.0283
  0
VERTEX
  8
1
 10
15.8742
 20
-5.8829
  0
VERTEX
  8
1
 10
13.9199
 20
-5.7544
  0
VERTEX
  8
1
 10
10.2121
 20
-5.5222
  0
VERTEX
  8
1
 10
8.4740
 20
-5.4016
  0
VERTEX
  8
1
 10
6.7708
 20
-5.2793
  0
VERTEX
  8
1
 10
5.1712
 20
-5.2163
  0
VERTEX
  8
1
 10
3.8147
 20
-5.1626
  0
VERTEX
  8
1
 10
-4.1851
 20
-5.0808
  0
SEQEND
  8
1
  0
POLYLINE
  8
84
 66
1
 70
0
  0
VERTEX
  8
84
 10
32.4770
 20
-11.5065
  0
VERTEX
  8
84
 10
31.1914
 20
-10.6831
  0
VERTEX
  8
84
 10
29.7133
 20
-9.7850
  0
VERTEX
  8
84
 10
29.0647
 20
-9.4088
  0
VERTEX
  8
84
 10
28.4101
 20
-9.0429
  0
VERTEX
  8
84
 10
27.7355
 20
-8.6835
  0
VERTEX
  8
84
 10
27.0545
 20
-8.3362
  0
VERTEX
  8
84
 10
25.7447
 20
-7.7137
  0
VERTEX
  8
84
 10
24.4196
 20
-7.3183
  0
VERTEX
  8
84
 10
23.5040
 20
-7.0761
  0
VERTEX
  8
84
 10
22.5845
 20
-6.8487
  0
VERTEX
  8
84
 10
20.9947
 20
-6.4870
  0
VERTEX
  8
84
 10
19.3646
 20
-6.1640
  0
VERTEX
  8
84
 10
19.3646
 20
-6.1640
  0
VERTEX
  8
84
 10
17.7294
 20
-6.0283
  0
VERTEX
  8
84
 10
15.8742
 20
-5.8829
  0
VERTEX
  8
84
 10
13.9199
 20
-5.7544
  0
VERTEX
  8
84
 10
10.2121
 20
-5.5222
  0
VERTEX
  8
84
 10
8.4740
 20
-5.4016
  0
VERTEX
  8
84
 10
6.7708
 20
-5.2793
  0
VERTEX
  8
84
 10
5.1712
 20
-5.2163
  0
VERTEX
  8
84
 10
3.8147
 20
-5.1626
  0
VERTEX
  8
84
 10
-4.1851
 20
-5.0808
  0
SEQEND
  8
84
  0
POINT
  8
2
 10
32.4770
 20
-11.5065
  0
POINT
  8
3
 10
31.1914
 20
-10.6831
  0
POINT
  8
3
 10
29.7133
 20
-9.7850
  0
POINT
  8
3
 10
28.4101
 20
-9.0429
  0
POINT
  8
3
 10
27.0545
 20
-8.3362
  0
POINT
  8
2
 10
25.7447
 20
-7.7137
  0
POINT
  8
3
 10
24.4196
 20
-7.3183
  0
POINT
  8
3
 10
22.5845
 20
-6.8487
  0
POINT
  8
3
 10
20.9947
 20
-6.4870
  0
POINT
  8
2
 10
19.3646
 20
-6.1640
  0
POINT
  8
4
 10
19.3646
 20
-6.1640
 30
0.0950
 39
0.1560
 50
82.0214
  0
POINT
  8
2
 10
19.3646
 20
-6.1640
  0
POINT
  8
3
 10
17.7294
 20
-6.0283
  0
POINT
  8
2
 10
15.8742
 20
-5.8829
  0
POINT
  8
3
 10
13.9199
 20
-5.7544
  0
POINT
  8
2
 10
10.2121
 20
-5.5222
  0
POINT
  8
3
 10
8.4740
 20
-5.4016
  0
POINT
  8
3
 10
6.7708
 20
-5.2793
  0
POINT
  8
3
 10
5.1712
 20
-5.2163
  0
POINT
  8
2
 10
3.8147
 20
-5.1626
  0
POINT
  8
2
 10
-4.1851
 20
-5.0808
  0
LINE
  8
7
 10
-2.8365
 20
0.5514
 11
41.3672
 21
0.5514
  0
LINE
  8
5
 10
-2.8365
 20
0.5514
 11
41.3672
 21
0.5514
  0
POINT
  8
3
 10
-2.8365
 20
0.5514
  0
POINT
  8
3
 10
41.3672
 20
0.5514
  0
POINT
  8
2
 10
41.3672
 20
0.5514
  0
POINT
  8
13
 10
40.5883
 20
5.8617
  0
TEXT
  8
13
 10
40.5883
 20
5.8617
 40
0.250
 50
0.0000
  1
NM
  7
STANDARD
  0
POINT
  8
2
 10
40.5883
 20
5.8617
  0
POINT
  8
13
 10
41.0797
 20
3.0001
  0
TEXT
  8
13
 10
41.0797
 20
3.0001
 40
0.250
 50
0.0000
  1
NM
  7
STANDARD
  0
POINT
  8
2
 10
41.0797
 20
3.0001
  0
POINT
  8
13
 10
40.3282
 20
2.8732
  0
TEXT
  8
13
 10
40.3282
 20
2.8732
 40
0.250
 50
0.0000
  1
D
  7
STANDARD
  0
POINT
  8
2
 10
40.3282
 20
2.8732
  0
POINT
  8
13
 10
39.8694
 20
5.7271
  0
TEXT
  8
13
 10
39.8694
 20
5.7271
 40
0.250
 50
0.0000
  1
D
  7
STANDARD
  0
POINT
  8
2
 10
39.8694
 20
5.7271
  0
POINT
  8
13
 10
35.8637
 20
-2.6315
  0
TEXT
  8
13
 10
35.8637
 20
-2.6315
 40
0.250
 50
0.0000
  1
NM
  7
STANDARD
  0
POINT
  8
2
 10
35.8637
 20
-2.6315
  0
POINT
  8
13
 10
41.4579
 20
8.3717
  0
TEXT
  8
13
 10
41.4579
 20
8.3717
 40
0.250
 50
0.0000
  1
NM
  7
STANDARD
  0
POINT
  8
2
 10
41.4579
 20
8.3717
  0
POINT
  8
13
 10
41.4579
 20
-3.4206
  0
TEXT
  8
13
 10
41.4579
 20
-3.4206
 40
0.250
 50
0.0000
  1
NM
  7
STANDARD
  0
POINT
  8
2
 10
41.4579
 20
-3.4206
  0
LINE
  8
100
 10
-1.0280
 20
3.1439
 11
-0.9918
 21
-2.1036
  0
POINT
  8
2
 10
-1.0280
 20
3.1439
  0
POINT
  8
2
 10
-0.9918
 20
-2.1036
  0
ENDBLK
  0
BLOCK
  8
0
  2
38 FRONT DXF_34
 70
64
 10
0.0000
 20
0.0000
  0
TEXT
  8
1
 10
20.9906
 20
-0.1347
 40
0.250
 50
0.0000
  1
Piece Name: 38 FRONT DXF
  7
STANDARD
  0
TEXT
  8
1
 10
20.9906
 20
0.0053
 40
0.250
 50
0.0000
  1
Quantity: 1,0
  7
STANDARD
  0
TEXT
  8
1
 10
20.9906
 20
0.1453
 40
0.250
 50
0.0000
  1
ANNOTATION
  7
STANDARD
  0
TEXT
  8
1
 10
20.9906
 20
0.2853
 40
0.250
 50
0.0000
  1
CATEGORY: FRONTP
  7
STANDARD
  0
TEXT
  8
1
 10
20.9906
 20
0.4253
 40
0.250
 50
0.0000
  1
SIZE: 34
  7
STANDARD
  0
POLYLINE
  8
1
 66
1
 70
0
  0
VERTEX
  8
1
 10
-2.4009
 20
-4.0878
  0
VERTEX
  8
1
 10
-2.4035
 20
4.0473
  0
SEQEND
  8
1
  0
POLYLINE
  8
84
 66
1
 70
0
  0
VERTEX
  8
84
 10
-2.4009
 20
-4.0878
  0
VERTEX
  8
84
 10
-2.4035
 20
4.0473
  0
SEQEND
  8
84
  0
POINT
  8
2
 10
-2.4009
 20
-4.0878
  0
POINT
  8
2
 10
-2.4035
 20
4.0473
  0
POLYLINE
  8
1
 66
1
 70
0
  0
VERTEX
  8
1
 10
-2.4035
 20
4.0473
  0
VERTEX
  8
1
 10
5.5965
 20
4.1014
  0
VERTEX
  8
1
 10
8.6458
 20
4.2418
  0
VERTEX
  8
1
 10
11.6638
 20
4.3958
  0
VERTEX
  8
1
 10
14.9929
 20
4.5773
  0
VERTEX
  8
1
 10
17.6583
 20
4.7269
  0
VERTEX
  8
1
 10
19.4068
 20
4.8137
  0
VERTEX
  8
1
 10
21.1553
 20
4.8963
  0
VERTEX
  8
1
 10
21.1553
 20
4.8963
  0
VERTEX
  8
1
 10
23.3931
 20
5.0307
  0
VERTEX
  8
1
 10
25.9181
 20
5.2282
  0
VERTEX
  8
1
 10
27.7269
 20
5.3847
  0
VERTEX
  8
1
 10
29.6660
 20
5.5746
  0
VERTEX
  8
1
 10
31.5287
 20
5.8011
  0
VERTEX
  8
1
 10
33.4880
 20
6.2106
  0
VERTEX
  8
1
 10
35.4016
 20
6.6639
  0
SEQEND
  8
1
  0
POLYLINE
  8
84
 66
1
 70
0
  0
VERTEX
  8
84
 10
-2.4035
 20
4.0473
  0
VERTEX
  8
84
 10
5.5965
 20
4.1014
  0
VERTEX
  8
84
 10
8.6458
 20
4.2418
  0
VERTEX
  8
84
 10
11.6638
 20
4.3958
  0
VERTEX
  8
84
 10
14.9929
 20
4.5773
  0
VERTEX
  8
84
 10
17.6583
 20
4.7269
  0
VERTEX
  8
84
 10
19.4068
 20
4.8137
  0
VERTEX
  8
84
 10
21.1553
 20
4.8963
  0
VERTEX
  8
84
 10
21.1553
 20
4.8963
  0
VERTEX
  8
84
 10
23.3931
 20
5.0307
  0
VERTEX
  8
84
 10
25.9181
 20
5.2282
  0
VERTEX
  8
84
 10
27.7269
 20
5.3847
  0
VERTEX
  8
84
 10
29.6660
 20
5.5746
  0
VERTEX
  8
84
 10
30.5990
 20
5.6755
  0
VERTEX
  8
84
 10
31.5287
 20
5.8011
  0
VERTEX
  8
84
 10
32.5110
 20
5.9924
  0
VERTEX
  8
84
 10
33.4880
 20
6.2106
  0
VERTEX
  8
84
 10
35.4016
 20
6.6639
  0
SEQEND
  8
84
  0
POINT
  8
2
 10
-2.4035
 20
4.0473
  0
POINT
  8
2
 10
5.5965
 20
4.1014
  0
POINT
  8
3
 10
8.6458
 20
4.2418
  0
POINT
  8
3
 10
11.6638
 20
4.3958
  0
POINT
  8
3
 10
14.9929
 20
4.5773
  0
POINT
  8
2
 10
17.6583
 20
4.7269
  0
POINT
  8
3
 10
19.4068
 20
4.8137
  0
POINT
  8
2
 10
21.1553
 20
4.8963
  0
POINT
  8
4
 10
21.1553
 20
4.8963
 30
0.0950
 39
0.1560
 50
-86.9276
  0
POINT
  8
2
 10
21.1553
 20
4.8963
  0
POINT
  8
3
 10
23.3931
 20
5.0307
  0
POINT
  8
3
 10
25.9181
 20
5.2282
  0
POINT
  8
2
 10
27.7269
 20
5.3847
  0
POINT
  8
3
 10
29.6660
 20
5.5746
  0
POINT
  8
3
 10
31.5287
 20
5.8011
  0
POINT
  8
3
 10
33.4880
 20
6.2106
  0
POINT
  8
2
 10
35.4016
 20
6.6639
  0
POLYLINE
  8
1
 66
1
 70
0
  0
VERTEX
  8
1
 10
35.4016
 20
6.6639
  0
VERTEX
  8
1
 10
35.5947
 20
6.2351
  0
VERTEX
  8
1
 10
35.9761
 20
5.6590
  0
VERTEX
  8
1
 10
36.4160
 20
5.3755
  0
VERTEX
  8
1
 10
37.2123
 20
5.1719
  0
VERTEX
  8
1
 10
37.2123
 20
5.1719
  0
VERTEX
  8
1
 10
38.3153
 20
5.0667
  0
VERTEX
  8
1
 10
39.1007
 20
4.9942
  0
VERTEX
  8
1
 10
39.8629
 20
4.9190
  0
VERTEX
  8
1
 10
41.1834
 20
4.7731
  0
VERTEX
  8
1
 10
42.6289
 20
4.5994
  0
VERTEX
  8
1
 10
43.6453
 20
4.4643
  0
SEQEND
  8
1
  0
POLYLINE
  8
84
 66
1
 70
0
  0
VERTEX
  8
84
 10
35.4016
 20
6.6639
  0
VERTEX
  8
84
 10
35.5947
 20
6.2351
  0
VERTEX
  8
84
 10
35.7661
 20
5.9325
  0
VERTEX
  8
84
 10
35.8646
 20
5.7905
  0
VERTEX
  8
84
 10
35.9761
 20
5.6590
  0
VERTEX
  8
84
 10
36.0751
 20
5.5731
  0
VERTEX
  8
84
 10
36.1829
 20
5.4979
  0
VERTEX
  8
84
 10
36.4160
 20
5.3755
  0
VERTEX
  8
84
 10
36.6103
 20
5.3105
  0
VERTEX
  8
84
 10
36.8089
 20
5.2584
  0
VERTEX
  8
84
 10
37.2123
 20
5.1719
  0
VERTEX
  8
84
 10
37.2123
 20
5.1719
  0
VERTEX
  8
84
 10
38.3153
 20
5.0667
  0
VERTEX
  8
84
 10
39.1007
 20
4.9942
  0
VERTEX
  8
84
 10
39.8629
 20
4.9190
  0
VERTEX
  8
84
 10
41.1834
 20
4.7731
  0
VERTEX
  8
84
 10
42.6289
 20
4.5994
  0
VERTEX
  8
84
 10
43.6453
 20
4.4643
  0
SEQEND
  8
84
  0
POINT
  8
2
 10
35.4016
 20
6.6639
  0
POINT
  8
3
 10
35.5947
 20
6.2351
  0
POINT
  8
3
 10
35.9761
 20
5.6590
  0
POINT
  8
3
 10
36.4160
 20
5.3755
  0
POINT
  8
2
 10
37.2123
 20
5.1719
  0
POINT
  8
4
 10
37.2123
 20
5.1719
 30
0.0950
 39
0.1560
 50
-98.7719
  0
POINT
  8
2
 10
37.2123
 20
5.1719
  0
POINT
  8
3
 10
38.3153
 20
5.0667
  0
POINT
  8
3
 10
39.1007
 20
4.9942
  0
POINT
  8
2
 10
39.8629
 20
4.9190
  0
POINT
  8
3
 10
41.1834
 20
4.7731
  0
POINT
  8
3
 10
42.6289
 20
4.5994
  0
POINT
  8
2
 10
43.6453
 20
4.4643
  0
POLYLINE
  8
1
 66
1
 70
0
  0
VERTEX
  8
1
 10
43.6453
 20
4.4643
  0
VERTEX
  8
1
 10
43.6193
 20
3.5108
  0
VERTEX
  8
1
 10
43.6203
 20
2.2592
  0
VERTEX
  8
1
 10
43.7862
 20
0.3958
  0
VERTEX
  8
1
 10
44.0165
 20
-1.8839
  0
VERTEX
  8
1
 10
44.2328
 20
-3.5944
  0
VERTEX
  8
1
 10
44.3453
 20
-4.5381
  0
VERTEX
  8
1
 10
44.3453
 20
-4.5381
  0
VERTEX
  8
1
 10
44.3847
 20
-4.9198
  0
SEQEND
  8
1
  0
POLYLINE
  8
84
 66
1
 70
0
  0
VERTEX
  8
84
 10
43.6453
 20
4.4643
  0
VERTEX
  8
84
 10
43.6193
 20
3.5108
  0
VERTEX
  8
84
 10
43.6109
 20
2.8849
  0
VERTEX
  8
84
 10
43.6203
 20
2.2592
  0
VERTEX
  8
84
 10
43.6918
 20
1.3268
  0
VERTEX
  8
84
 10
43.7862
 20
0.3958
  0
VERTEX
  8
84
 10
44.0165
 20
-1.8839
  0
VERTEX
  8
84
 10
44.2328
 20
-3.5944
  0
VERTEX
  8
84
 10
44.3453
 20
-4.5381
  0
VERTEX
  8
84
 10
44.3453
 20
-4.5381
  0
VERTEX
  8
84
 10
44.3847
 20
-4.9198
  0
SEQEND
  8
84
  0
POINT
  8
2
 10
43.6453
 20
4.4643
  0
POINT
  8
3
 10
43.6193
 20
3.5108
  0
POINT
  8
3
 10
43.6203
 20
2.2592
  0
POINT
  8
3
 10
43.7862
 20
0.3958
  0
POINT
  8
3
 10
44.0165
 20
-1.8839
  0
POINT
  8
3
 10
44.2328
 20
-3.5944
  0
POINT
  8
2
 10
44.3453
 20
-4.5381
  0
POINT
  8
4
 10
44.3453
 20
-4.5381
 30
0.0950
 39
0.1560
 50
-173.6560
  0
POINT
  8
2
 10
44.3453
 20
-4.5381
  0
POINT
  8
2
 10
44.3847
 20
-4.9198
  0
POLYLINE
  8
1
 66
1
 70
0
  0
VERTEX
  8
1
 10
44.3847
 20
-4.9198
  0
VERTEX
  8
1
 10
36.9569
 20
-6.9333
  0
VERTEX
  8
1
 10
36.9569
 20
-6.9333
  0
VERTEX
  8
1
 10
33.9325
 20
-6.3608
  0
VERTEX
  8
1
 10
31.8206
 20
-6.0654
  0
VERTEX
  8
1
 10
29.7157
 20
-5.7784
  0
VERTEX
  8
1
 10
28.0870
 20
-5.6050
  0
VERTEX
  8
1
 10
26.3272
 20
-5.4511
  0
VERTEX
  8
1
 10
23.4911
 20
-5.2066
  0
VERTEX
  8
1
 10
21.1471
 20
-5.0127
  0
VERTEX
  8
1
 10
21.1471
 20
-5.0127
  0
VERTEX
  8
1
 10
19.3995
 20
-4.9087
  0
VERTEX
  8
1
 10
17.6519
 20
-4.8062
  0
VERTEX
  8
1
 10
14.6196
 20
-4.6332
  0
VERTEX
  8
1
 10
11.9095
 20
-4.4724
  0
VERTEX
  8
1
 10
8.9009
 20
-4.3101
  0
VERTEX
  8
1
 10
5.5990
 20
-4.1420
  0
VERTEX
  8
1
 10
-2.4009
 20
-4.0878
  0
SEQEND
  8
1
  0
POLYLINE
  8
84
 66
1
 70
0
  0
VERTEX
  8
84
 10
44.3847
 20
-4.9198
  0
VERTEX
  8
84
 10
36.9569
 20
-6.9333
  0
VERTEX
  8
84
 10
36.9569
 20
-6.9333
  0
VERTEX
  8
84
 10
35.4463
 20
-6.6381
  0
VERTEX
  8
84
 10
33.9325
 20
-6.3608
  0
VERTEX
  8
84
 10
32.8776
 20
-6.2064
  0
VERTEX
  8
84
 10
31.8206
 20
-6.0654
  0
VERTEX
  8
84
 10
29.7157
 20
-5.7784
  0
VERTEX
  8
84
 10
28.0870
 20
-5.6050
  0
VERTEX
  8
84
 10
26.3272
 20
-5.4511
  0
VERTEX
  8
84
 10
23.4911
 20
-5.2066
  0
VERTEX
  8
84
 10
21.1471
 20
-5.0127
  0
VERTEX
  8
84
 10
21.1471
 20
-5.0127
  0
VERTEX
  8
84
 10
19.3995
 20
-4.9087
  0
VERTEX
  8
84
 10
17.6519
 20
-4.8062
  0
VERTEX
  8
84
 10
14.6196
 20
-4.6332
  0
VERTEX
  8
84
 10
11.9095
 20
-4.4724
  0
VERTEX
  8
84
 10
8.9009
 20
-4.3101
  0
VERTEX
  8
84
 10
5.5990
 20
-4.1420
  0
VERTEX
  8
84
 10
-2.4009
 20
-4.0878
  0
SEQEND
  8
84
  0
POINT
  8
2
 10
44.3847
 20
-4.9198
  0
POINT
  8
2
 10
36.9569
 20
-6.9333
  0
POINT
  8
4
 10
36.9569
 20
-6.9333
 30
0.0950
 39
0.1560
 50
92.0573
  0
POINT
  8
2
 10
36.9569
 20
-6.9333
  0
POINT
  8
3
 10
33.9325
 20
-6.3608
  0
POINT
  8
3
 10
31.8206
 20
-6.0654
  0
POINT
  8
3
 10
29.7157
 20
-5.7784
  0
POINT
  8
2
 10
28.0870
 20
-5.6050
  0
POINT
  8
3
 10
26.3272
 20
-5.4511
  0
POINT
  8
3
 10
23.4911
 20
-5.2066
  0
POINT
  8
2
 10
21.1471
 20
-5.0127
  0
POINT
  8
4
 10
21.1471
 20
-5.0127
 30
0.0950
 39
0.1560
 50
85.9344
  0
POINT
  8
2
 10
21.1471
 20
-5.0127
  0
POINT
  8
3
 10
19.3995
 20
-4.9087
  0
POINT
  8
2
 10
17.6519
 20
-4.8062
  0
POINT
  8
3
 10
14.6196
 20
-4.6332
  0
POINT
  8
3
 10
11.9095
 20
-4.4724
  0
POINT
  8
3
 10
8.9009
 20
-4.3101
  0
POINT
  8
2
 10
5.5990
 20
-4.1420
  0
POINT
  8
2
 10
-2.4009
 20
-4.0878
  0
LINE
  8
7
 10
-0.7217
 20
-0.0688
 11
41.6318
 21
-0.0688
  0
LINE
  8
5
 10
-0.7217
 20
-0.0688
 11
41.6318
 21
-0.0688
  0
POINT
  8
3
 10
-0.7217
 20
-0.0688
  0
POINT
  8
3
 10
41.6318
 20
-0.0688
  0
POINT
  8
2
 10
41.6318
 20
-0.0688
  0
POINT
  8
13
 10
-1.4006
 20
-0.0688
  0
TEXT
  8
13
 10
-1.4006
 20
-0.0688
 40
0.250
 50
0.0000
  1
NM
  7
STANDARD
  0
POINT
  8
2
 10
-1.4006
 20
-0.0688
  0
POINT
  8
13
 10
43.2451
 20
-0.0718
  0
TEXT
  8
13
 10
43.2451
 20
-0.0718
 40
0.250
 50
0.0000
  1
NM
  7
STANDARD
  0
POINT
  8
2
 10
43.2451
 20
-0.0718
  0
POINT
  8
13
 10
36.9568
 20
-4.4780
  0
TEXT
  8
13
 10
36.9568
 20
-4.4780
 40
0.250
 50
0.0000
  1
NM
  7
STANDARD
  0
POINT
  8
2
 10
36.9568
 20
-4.4780
  0
POINT
  8
13
 10
43.2451
 20
-4.2806
  0
TEXT
  8
13
 10
43.2451
 20
-4.2806
 40
0.250
 50
0.0000
  1
NM
  7
STANDARD
  0
POINT
  8
2
 10
43.2451
 20
-4.2806
  0
LINE
  8
100
 10
0.6634
 20
2.3192
 11
0.6543
 21
-2.2693
  0
POINT
  8
2
 10
0.6634
 20
2.3192
  0
POINT
  8
2
 10
0.6543
 20
-2.2693
  0
ENDBLK
  0
ENDSEC
  0
SECTION
  2
ENTITIES
  0
TEXT
  8
1
 10
0.0000
 20
0.0000
 40
0.250
 50
0.0000
  1
Style Name: ARM PANT DXF
  7
STANDARD
  0
TEXT
  8
1
 10
0.0000
 20
0.1400
 40
0.250
 50
0.0000
  1
Creation Date:  5-10-2020
  7
STANDARD
  0
TEXT
  8
1
 10
0.0000
 20
0.2800
 40
0.250
 50
0.0000
  1
Creation Time: 13:08
  7
STANDARD
  0
TEXT
  8
1
 10
0.0000
 20
0.4200
 40
0.250
 50
0.0000
  1
Author: GERBER TECHNOLOGY ; ACCUMARK ; 13.2.0
  7
STANDARD
  0
TEXT
  8
1
 10
0.0000
 20
0.5600
 40
0.250
 50
0.0000
  1
Sample Size: 34
  7
STANDARD
  0
TEXT
  8
1
 10
0.0000
 20
0.7000
 40
0.250
 50
0.0000
  1
Grade Rule Table: P34*
  7
STANDARD
  0
TEXT
  8
1
 10
0.0000
 20
0.8400
 40
0.250
 50
0.0000
  1
Units: ENGLISH
  7
STANDARD
  0
TEXT
  8
1
 10
0.0000
 20
0.9800
 40
0.250
 50
0.0000
  1
Curve Tolerance: .006
  7
STANDARD
  0
TEXT
  8
1
 10
0.0000
 20
1.1200
 40
0.250
 50
0.0000
  1
ASTM/D13Proposal 1 Version: D 6673-04
  7
STANDARD
  0
INSERT
  8
1
  2
34 FRONT DXF_34
 10
0.0000
 20
0.0000
  0
INSERT
  8
1
  2
34 BACK DXF_34
 10
0.0000
 20
0.0000
  0
INSERT
  8
1
  2
38 BACK DXF_34
 10
0.0000
 20
0.0000
  0
INSERT
  8
1
  2
38 FRONT DXF_34
 10
0.0000
 20
0.0000
  0
ENDSEC
  0
EOF
